# xmcd
#
# Track frame offsets:
#	150
#	11273
#	27516
#	39187
#	52617
#	62855
#	74295
#	87674
#	101769
#	113758
#	125481
#
# Disc length: 1825 seconds
#
# Revision: 1
# Processed by: cddbd v1.5.2PL0 Copyright (c) Steve Scherf et al.
# Submitted via: EZCDAudioConverter 3.1.0.1
#
DISCID=8a071f0b
DTITLE=Tammy Wynette - The First Lady
DYEAR=1970
DGENRE=Country
TTITLE0=Run, Woman, Run
TTITLE1=I Wish I Had a Mommy Like You
TTITLE2=True and Lasting Love
TTITLE3=I Never Once Stopped Loving You
TTITLE4=Safe in These Lovin’ Arms of Mine
TTITLE5=Sally Trash
TTITLE6=My Daddy Doll
TTITLE7=The Lovin’ Kind
TTITLE8=He's Still My Man
TTITLE9=Buy Me a Daddy
TTITLE10=Playin’ Around With Love
EXTD=
EXTT0=
EXTT1=
EXTT2=
EXTT3=
EXTT4=
EXTT5=
EXTT6=
EXTT7=
EXTT8=
EXTT9=
EXTT10=
PLAYORDER=
